# xmcd
# 
# Track frame offsets:
#   150
#   17241
#   32972
#   51826
#   69869
#   88528
#   105867
#   125169
#   144448
#   161536
#   177250
#   196060
#   214117
#   232726
#   250067
#   269361
# 
# Disc length: 3850 seconds
# 
# Revision: 0
# Processed by: cddbd v1.5.2PL0 Copyright (c) Steve Scherf et al.
# Submitted via: VOLTOCDX V1.0.24 
# 
DISCID=d20f0810
DTITLE=Various Artist - Super Femail Country Hits Vol. 2
DYEAR=2009
DGENRE=Karaoke
TTITLE0=Complicated - Carolyn Dawn Johnson
TTITLE1=What I really Ment to Say - Cyndi Thompson
TTITLE2=When You Lie Next To Me - Kelly Coffey
TTITLE3=Cry - Faith Hill
TTITLE4=Forgive - Rebecca Lynn Howard
TTITLE5=There You'll Be - Faith Hill
TTITLE6=Blessed - Martina McBride
TTITLE7=I'm Gonna Getcha Good (Country Version) - Shania Twain
TTITLE8=
TTITLE9=
TTITLE10=
TTITLE11=
TTITLE12=
TTITLE13=
TTITLE14=
TTITLE15=
EXTD=
EXTT0=
EXTT1=
EXTT2=
EXTT3=
EXTT4=
EXTT5=
EXTT6=
EXTT7=
EXTT8=
EXTT9=
EXTT10=
EXTT11=
EXTT12=
EXTT13=
EXTT14=
EXTT15=
PLAYORDER=
